<svg t="1568795928363" class="icon" viewBox="0 0 1024 1024" version="1.1" xmlns="http://www.w3.org/2000/svg" p-id="2887" width="200" height="200"><path d="M984.746667 196.266667H629.76c-22.186667 0-39.253333-17.066667-39.253333-39.253334 0-22.186667 17.066667-39.253333 39.253333-39.253333h354.986667C1006.933333 117.76 1024 136.533333 1024 157.013333c0 22.186667-17.066667 39.253333-39.253333 39.253334z m0 197.973333H629.76c-22.186667 0-39.253333-17.066667-39.253333-39.253333 0-22.186667 17.066667-39.253333 39.253333-39.253334h354.986667c22.186667 0 39.253333 17.066667 39.253333 39.253334 0 20.48-17.066667 39.253333-39.253333 39.253333z m0 314.026667H629.76c-22.186667 0-39.253333-17.066667-39.253333-39.253334 0-22.186667 17.066667-39.253333 39.253333-39.253333h354.986667c22.186667 0 39.253333 17.066667 39.253333 39.253333 0 22.186667-17.066667 39.253333-39.253333 39.253334z m0 197.973333H629.76c-22.186667 0-39.253333-17.066667-39.253333-39.253333 0-22.186667 17.066667-39.253333 39.253333-39.253334h354.986667c22.186667 0 39.253333 17.066667 39.253333 39.253334 0 20.48-17.066667 39.253333-39.253333 39.253333zM354.986667 472.746667H117.76c-64.853333 0-117.76-52.906667-117.76-117.76V117.76C0 52.906667 52.906667 0 117.76 0h235.52c64.853333 0 117.76 52.906667 117.76 117.76v235.52c1.706667 66.56-51.2 119.466667-116.053333 119.466667zM117.76 78.506667c-22.186667 0-39.253333 17.066667-39.253333 39.253333v235.52c0 22.186667 17.066667 39.253333 39.253333 39.253333h235.52c22.186667 0 39.253333-17.066667 39.253333-39.253333V117.76c0-22.186667-17.066667-39.253333-39.253333-39.253333H117.76zM354.986667 1024H117.76C52.906667 1024 0 971.093333 0 906.24V669.013333c0-64.853333 52.906667-117.76 117.76-117.76h235.52c64.853333 0 117.76 52.906667 117.76 117.76V904.533333c1.706667 66.56-51.2 119.466667-116.053333 119.466667zM117.76 629.76c-22.186667 0-39.253333 17.066667-39.253333 39.253333V904.533333c0 22.186667 17.066667 39.253333 39.253333 39.253334h235.52c22.186667 0 39.253333-17.066667 39.253333-39.253334V669.013333c0-22.186667-17.066667-39.253333-39.253333-39.253333H117.76z" fill="#2492D2" p-id="2888"></path></svg>
