<svg t="1568795721234" class="icon" viewBox="0 0 1094 1024" version="1.1" xmlns="http://www.w3.org/2000/svg" p-id="1976" width="200" height="200"><path d="M234.101051 1024H95.27964A95.27964 95.27964 0 0 1 0 928.72036V95.27964A95.27964 95.27964 0 0 1 95.27964 0h138.821411a95.27964 95.27964 0 0 1 95.279639 95.27964v833.44072a95.27964 95.27964 0 0 1-95.279639 95.27964zM95.27964 50.713357a44.054027 44.054027 0 0 0-44.054027 44.054027v833.952976a44.054027 44.054027 0 0 0 44.054027 44.054027h138.821411a44.054027 44.054027 0 0 0 44.054027-44.054027V95.27964a44.054027 44.054027 0 0 0-44.054027-44.054027z" fill="#4099FF" p-id="1977"></path><path d="M179.801901 461.030515h-30.735368c-5.634817 0-10.245123 23.051526-10.245122 51.225613s4.610305 51.225613 10.245122 51.225613h30.735368c5.634817 0 10.245123-23.051526 10.245123-51.225613s-4.610305-51.225613-10.245123-51.225613zM616.244122 1024H477.422711a95.27964 95.27964 0 0 1-95.279639-95.27964V95.27964A95.27964 95.27964 0 0 1 477.422711 0h138.821411a95.27964 95.27964 0 0 1 95.27964 95.27964v833.44072a95.27964 95.27964 0 0 1-95.27964 95.27964zM477.422711 50.713357a44.054027 44.054027 0 0 0-44.054027 44.054027v833.952976a44.054027 44.054027 0 0 0 44.054027 44.054027h138.821411a44.054027 44.054027 0 0 0 44.054027-44.054027V95.27964a44.054027 44.054027 0 0 0-44.054027-44.054027z" fill="#4099FF" p-id="1978"></path><path d="M561.944972 461.030515h-30.735367c-5.634817 0-10.245123 23.051526-10.245123 51.225613s4.610305 51.225613 10.245123 51.225613h30.735367c5.634817 0 10.245123-23.051526 10.245123-51.225613s-4.610305-51.225613-10.245123-51.225613zM998.387194 1024h-138.821411a95.27964 95.27964 0 0 1-95.27964-95.27964V95.27964a95.27964 95.27964 0 0 1 95.27964-95.27964h138.821411a95.27964 95.27964 0 0 1 95.279639 95.27964v833.44072a95.27964 95.27964 0 0 1-95.279639 95.27964z m-138.821411-973.286643a44.054027 44.054027 0 0 0-44.054027 44.054027v833.952976a44.054027 44.054027 0 0 0 44.054027 44.054027h138.821411a44.054027 44.054027 0 0 0 44.054027-44.054027V95.27964a44.054027 44.054027 0 0 0-44.054027-44.054027z" fill="#4099FF" p-id="1979"></path><path d="M944.088044 461.030515h-30.735368c-5.634817 0-10.245123 23.051526-10.245122 51.225613s4.610305 51.225613 10.245122 51.225613h30.735368c5.634817 0 10.245123-23.051526 10.245123-51.225613s-4.610305-51.225613-10.245123-51.225613z" fill="#4099FF" p-id="1980"></path></svg>
