<svg t="1568795840290" class="icon" viewBox="0 0 1024 1024" version="1.1" xmlns="http://www.w3.org/2000/svg" p-id="2091" width="200" height="200"><path d="M1023.572933 675.413688a134.704881 134.704881 0 0 0-131.858222-132.462059h-0.258787a137.009319 137.009319 0 0 0-76.40383 23.216906L673.889857 412.227141a237.714496 237.714496 0 0 0 80.100789-177.170623C750.897523 102.21244 640.752776-3.003028 507.908698 0.065449a240.610448 240.610448 0 0 0-234.991069 234.991069 237.332477 237.332477 0 0 0 74.789491 172.734271L202.872569 561.288548a136.245281 136.245281 0 1 0 70.04506 118.536845 134.704881 134.704881 0 0 0-20.653681-71.141824L404.480094 447.335933a237.332477 237.332477 0 0 0 74.666259 23.73448v282.201242a137.526894 137.526894 0 1 0 68.701831 0v-282.201242a235.804401 235.804401 0 0 0 68.381428-20.333277l153.436142 167.225801a134.125691 134.125691 0 1 0 253.857887 57.475397z m-889.303609 75.873932h-0.061616l-0.061616-0.061616a68.443044 68.443044 0 1 1-4.58423-136.787501h4.645846a68.443044 68.443044 0 0 1 0.061616 136.886087z m446.75291 136.627301v0.197171a68.763447 68.763447 0 1 1-69.009911-68.50466h0.320403a68.50466 68.50466 0 0 1 68.689508 68.307489zM513.059795 409.134018h-0.837977a171.908617 171.908617 0 1 1 0.837977 0z m377.336334 342.091986a68.443044 68.443044 0 1 1 68.763447-68.381427 68.443044 68.443044 0 0 1-68.763447 68.381427z" p-id="2092" fill="#1296db"></path></svg>
